<?xml version="1.0" standalone="no"?>
<!DOCTYPE svg PUBLIC "-//W3C//DTD SVG 20010904//EN"
 "http://www.w3.org/TR/2001/REC-SVG-20010904/DTD/svg10.dtd">
<svg version="1.0" xmlns="http://www.w3.org/2000/svg"
 width="1920.000000pt" height="1920.000000pt" viewBox="0 0 1920.000000 1920.000000"
 preserveAspectRatio="xMidYMid meet">

<g transform="translate(0.000000,1920.000000) scale(0.100000,-0.100000)"
fill="#000000" stroke="none">
<path d="M2653 15979 c-82 -15 -144 -63 -211 -163 -134 -201 -212 -510 -198
-788 13 -249 58 -429 161 -643 102 -211 211 -346 460 -574 282 -258 1227
-1094 2033 -1800 259 -227 472 -418 472 -425 0 -6 -75 -35 -168 -64 -405 -130
-761 -281 -976 -414 -134 -83 -345 -242 -335 -253 5 -4 507 70 1042 155 109
18 201 29 205 25 4 -4 0 -10 -8 -13 -45 -15 -255 -131 -352 -195 -226 -147
-309 -228 -396 -385 -89 -160 -212 -263 -379 -318 -45 -15 -80 -30 -78 -35 9
-14 129 -49 200 -58 138 -17 289 22 394 101 31 23 103 87 161 142 114 108 180
159 369 285 195 131 534 331 560 331 19 0 49 -82 86 -238 159 -660 461 -1206
939 -1699 92 -95 136 -148 132 -158 -4 -13 -34 -15 -179 -15 -227 0 -210 -18
-217 229 -7 272 -9 274 -266 279 -271 6 -275 2 -284 -276 -6 -171 -8 -184 -28
-205 l-23 -22 -1307 -2 c-1218 -3 -1308 -4 -1319 -20 -19 -25 -19 -1546 0
-1561 8 -7 420 -13 1220 -17 728 -5 1207 -11 1205 -17 -5 -15 -612 -538 -624
-538 -7 0 -67 63 -134 140 -68 78 -134 150 -148 160 -55 44 -91 26 -280 -142
-129 -116 -152 -142 -152 -170 0 -9 56 -85 125 -168 148 -179 150 -182 133
-214 -12 -21 -646 -582 -1518 -1341 -434 -377 -420 -364 -420 -407 0 -21 9
-47 22 -64 68 -88 897 -1038 945 -1082 53 -48 -84 -160 1656 1350 262 228 385
328 401 328 17 0 57 -37 152 -143 149 -165 167 -181 197 -173 26 6 336 279
353 310 18 32 5 54 -131 218 -94 113 -125 157 -123 175 2 16 155 155 538 488
294 256 542 465 550 465 9 0 35 -40 64 -101 284 -579 801 -933 1541 -1056 154
-25 612 -25 800 1 711 97 1199 405 1468 928 39 77 61 128 126 298 11 27 24 45
33 45 9 0 272 -225 585 -500 612 -539 623 -548 623 -564 0 -6 -35 -52 -77
-102 -43 -50 -106 -125 -140 -166 -35 -41 -63 -84 -63 -95 0 -24 130 -156 250
-254 91 -74 115 -87 144 -80 12 3 78 67 146 142 68 75 130 142 137 150 36 35
55 22 465 -338 222 -194 610 -535 863 -757 671 -588 661 -580 690 -591 22 -8
33 -7 55 7 15 10 244 265 509 567 461 526 482 551 479 585 -3 41 84 -39 -1103
1010 -835 739 -835 738 -835 765 0 12 39 70 93 135 139 171 177 222 177 234 0
17 -203 214 -284 275 -107 81 -105 82 -271 -103 -90 -99 -147 -154 -160 -154
-19 -1 -605 506 -613 529 -2 6 503 10 1350 12 l1353 3 101 23 c391 86 637 212
869 446 158 159 285 369 376 621 29 80 33 102 33 200 1 128 -14 168 -86 229
-89 77 66 70 -1923 76 -1665 5 -1782 6 -1812 22 -17 10 -40 30 -51 45 -10 16
-94 171 -186 346 -185 350 -174 313 -141 457 47 209 -29 380 -213 478 -73 39
-74 44 -37 153 72 209 157 543 195 767 12 70 29 144 38 165 11 28 55 72 156
160 1182 1024 2805 2448 2888 2533 94 96 126 136 193 239 152 231 237 486 265
790 25 264 -44 596 -166 805 -91 155 -225 220 -361 174 -85 -29 -127 -62 -588
-464 -807 -704 -1295 -1130 -1978 -1727 -417 -365 -762 -663 -767 -663 -5 0
-25 30 -44 68 -129 255 -354 563 -588 807 -453 471 -1023 819 -1622 989 -370
105 -660 142 -1056 133 -255 -6 -387 -20 -598 -63 -917 -188 -1747 -780 -2327
-1662 -51 -78 -93 -132 -101 -130 -11 3 -470 405 -1429 1253 -629 557 -1597
1406 -1641 1441 -89 70 -178 98 -261 83z m132 -199 c52 -32 81 -68 69 -88 -24
-40 -155 -82 -255 -82 -67 0 -76 12 -49 65 64 126 143 161 235 105z m303 -261
c45 -40 80 -74 78 -78 -49 -89 -179 -301 -185 -301 -4 0 -33 37 -64 83 -31 45
-84 113 -118 150 -34 37 -60 69 -58 71 2 2 38 20 79 39 41 20 98 52 125 71 28
19 53 35 56 35 3 1 42 -31 87 -70z m12482 36 c28 -19 75 -42 103 -50 62 -19
186 -36 213 -29 18 4 53 -11 44 -19 -3 -2 -27 -19 -54 -37 -191 -129 -342
-328 -376 -495 -15 -73 -15 -183 0 -250 28 -126 120 -305 201 -390 44 -47 53
-63 50 -92 -2 -27 -49 -42 -161 -53 -207 -19 -407 -59 -571 -115 -41 -14 -78
-25 -83 -25 -5 0 57 64 137 143 160 156 226 246 275 375 51 133 63 264 38 407
-23 127 -70 243 -138 343 -48 70 -42 84 102 211 74 65 134 110 146 110 12 1
45 -15 74 -34z m-13037 -168 c55 -39 174 -153 222 -212 134 -164 150 -382 44
-592 -45 -91 -166 -232 -187 -219 -18 11 -74 126 -115 236 -77 206 -103 454
-72 675 22 161 29 168 108 112z m924 -190 c71 -62 454 -400 853 -752 399 -352
820 -723 935 -824 569 -502 650 -575 653 -588 2 -8 -19 -65 -47 -128 -80 -179
-158 -401 -191 -543 -7 -30 -19 -56 -26 -59 -8 -3 -48 24 -92 63 -267 233
-1950 1719 -2060 1818 -155 140 -217 213 -272 316 -63 122 -90 231 -90 367 0
133 24 222 90 333 47 80 75 110 100 110 11 0 77 -51 147 -113z m5893 -182
c342 -35 505 -66 761 -146 842 -262 1516 -788 2016 -1573 254 -399 409 -815
480 -1291 25 -170 25 -684 0 -865 -26 -186 -36 -229 -57 -240 -12 -7 -1183
-10 -3434 -10 -3011 0 -3416 2 -3429 15 -17 17 -21 31 -42 170 -53 358 -48
742 15 1070 129 675 468 1293 1000 1825 471 472 997 784 1575 935 400 105 789
143 1115 110z m-6330 -510 c16 -35 56 -108 89 -161 34 -53 61 -100 61 -106 0
-5 -12 -7 -27 -4 -43 9 -203 34 -258 41 -85 11 -85 12 -12 122 37 54 73 115
82 136 8 20 20 37 26 37 5 0 23 -29 39 -65z m-73 -410 c349 -46 507 -106 648
-249 105 -107 154 -213 215 -471 31 -128 39 -187 28 -195 -3 -3 -132 105 -285
240 -153 135 -387 342 -520 459 -134 117 -243 217 -243 222 0 12 21 11 157 -6z
m11743 -321 c0 -4 -18 -46 -39 -94 -78 -173 -132 -355 -162 -543 -14 -94 -49
-152 -111 -187 -41 -23 -52 -24 -233 -26 -209 -2 -314 -18 -469 -75 -44 -16
-84 -29 -89 -29 -21 0 -1 18 857 768 196 170 246 208 246 186z m-10609 -326
c64 -57 184 -164 267 -238 84 -74 147 -137 142 -138 -7 -3 -7 -9 1 -18 10 -12
-22 -14 -215 -14 -225 0 -226 0 -236 23 -13 30 -90 425 -90 460 0 15 4 27 8
27 5 0 60 -46 123 -102z m477 -578 c361 -86 659 -476 640 -833 l-3 -57 -440
386 c-601 528 -573 501 -555 513 28 19 266 13 358 -9z m8723 -367 c-84 -169
-140 -358 -156 -533 -8 -86 -22 -129 -54 -163 -49 -53 -71 -59 -233 -59 -82 0
-152 3 -155 6 -11 11 -28 224 -21 254 6 23 82 94 334 311 179 155 327 281 329
281 2 0 -18 -44 -44 -97z m-7816 -289 c58 -53 111 -104 118 -114 11 -16 11
-35 0 -112 -8 -51 -18 -97 -22 -101 -5 -5 -35 -9 -67 -9 -50 -1 -61 3 -80 25
-13 16 -25 47 -29 74 -4 27 -16 110 -29 186 -12 76 -20 140 -17 142 11 11 27
0 126 -91z m974 -1433 c11 -11 22 -37 25 -58 48 -331 126 -502 321 -699 61
-61 144 -134 185 -161 283 -189 585 -250 906 -183 455 94 834 499 904 965 18
122 19 124 43 137 35 18 1718 12 1733 -7 15 -20 37 -362 24 -386 -9 -15 -22
-19 -69 -19 -115 0 -474 64 -765 136 -55 13 -102 21 -105 18 -9 -8 109 -116
199 -183 84 -63 221 -137 327 -178 38 -14 145 -45 238 -69 136 -34 174 -48
191 -67 17 -20 23 -48 33 -163 7 -77 18 -204 26 -284 8 -80 16 -181 20 -225 9
-120 14 -139 32 -124 53 45 109 312 148 711 4 40 13 76 23 88 13 14 60 29 182
55 273 59 426 118 595 230 86 57 248 202 240 215 -2 4 -55 -6 -116 -22 -156
-40 -428 -94 -599 -117 -236 -32 -256 -34 -267 -19 -10 13 9 373 21 405 5 11
136 13 732 11 716 -3 727 -3 734 -23 4 -13 -21 -113 -72 -285 -90 -298 -90
-299 -201 -357 -186 -98 -262 -247 -228 -449 15 -87 10 -100 -71 -207 -531
-698 -1222 -1144 -2015 -1301 -1014 -201 -2019 36 -2798 660 -144 116 -386
358 -508 510 -246 307 -437 654 -564 1029 -43 126 -113 381 -113 410 0 16 56
19 408 23 169 2 183 1 201 -17z m5959 -797 c20 -8 52 -29 70 -47 123 -117 100
-308 -46 -394 -39 -23 -59 -28 -117 -28 -145 0 -246 98 -247 239 0 101 44 176
131 221 55 29 152 33 209 9z m195 -701 c90 -152 217 -390 272 -510 35 -74 46
-109 41 -128 -8 -31 -76 -81 -183 -135 -108 -53 -157 -70 -174 -60 -20 13
-188 850 -176 878 10 22 94 61 134 61 17 1 35 -21 86 -106z m-428 77 c20 -22
44 -120 110 -450 74 -365 98 -511 85 -524 -15 -15 -139 -24 -156 -11 -10 7
-17 50 -24 135 -6 69 -21 265 -35 435 -14 171 -27 329 -30 352 -6 40 7 83 24
83 4 0 16 -9 26 -20z m-196 -325 c12 -138 25 -299 31 -360 5 -60 12 -161 16
-222 l7 -113 -110 0 c-159 0 -149 -23 -124 302 43 537 39 507 67 558 32 58 74
104 85 93 4 -4 17 -121 28 -258z m-5783 70 c12 -16 14 -197 14 -1103 0 -727
-3 -1090 -10 -1103 -9 -16 -22 -19 -94 -19 -58 0 -87 4 -95 14 -8 10 -10 308
-9 1112 l3 1098 25 14 c38 20 149 11 166 -13z m5460 -171 c9 -36 -2 -93 -22
-116 -15 -16 -27 -18 -88 -13 -38 3 -71 7 -73 9 -7 6 150 146 164 146 7 0 16
-11 19 -26z m-36 -299 c7 -8 10 -25 7 -37 -4 -13 -7 -86 -8 -163 -2 -112 1
-146 14 -171 9 -17 13 -35 9 -39 -4 -4 0 -6 8 -3 8 3 30 -1 48 -9 73 -30 671
-10 828 28 54 13 139 53 289 136 135 75 161 96 205 165 21 32 51 69 67 81 l28
22 1421 3 c916 1 1431 -1 1448 -8 34 -13 34 -49 0 -166 -51 -178 -145 -326
-269 -427 -74 -60 -218 -131 -305 -151 -146 -34 -315 -37 -1850 -34 -1377 3
-1517 4 -1538 19 -24 17 -554 478 -707 615 -75 67 -90 86 -92 112 l-1 31 146
4 c81 1 168 4 193 5 31 1 51 -3 59 -13z m5125 1 c54 -23 68 -54 63 -139 -13
-196 -159 -482 -346 -679 -160 -168 -389 -312 -607 -383 -227 -73 -361 -78
-2230 -79 -882 -1 -964 0 -1015 16 -42 13 -78 38 -155 104 -191 167 -218 192
-212 209 6 13 164 15 1504 15 1623 0 1627 1 1787 54 154 52 282 128 384 228
146 143 240 327 287 560 10 46 22 89 27 96 16 19 466 17 513 -2z m-11037 -12
c60 -4 99 -12 108 -21 11 -11 14 -48 14 -164 0 -89 -4 -149 -10 -149 -5 0 -68
56 -139 124 -157 151 -172 162 -203 146 -13 -7 -122 -113 -243 -237 -183 -187
-223 -223 -240 -217 -11 4 -124 110 -250 235 -141 140 -239 229 -250 229 -23
0 -575 -555 -575 -578 0 -22 502 -536 547 -560 12 -7 30 -9 41 -4 11 4 122
107 247 230 125 122 234 222 242 222 20 0 172 -138 350 -317 94 -96 148 -143
162 -143 15 0 66 46 158 140 74 77 142 140 149 140 11 0 14 -31 14 -160 0
-155 -1 -160 -22 -174 -35 -22 -1859 -18 -1903 4 -30 15 -30 16 -41 135 -7 66
-12 128 -13 138 -1 12 -31 32 -97 64 -155 74 -209 149 -207 283 1 83 20 146
59 197 32 42 63 58 144 72 46 8 72 18 90 36 24 25 25 28 22 156 -2 125 -1 131
22 154 l24 23 853 1 c470 1 896 -2 947 -5z m-2020 -96 c2 -43 -2 -87 -8 -97
-5 -11 -38 -35 -73 -53 -168 -89 -246 -248 -220 -453 20 -160 105 -285 239
-351 30 -15 60 -36 65 -47 14 -26 7 -140 -10 -161 -20 -24 -332 -24 -352 1
-11 13 -15 126 -17 615 -2 330 -1 606 2 614 5 12 37 14 188 12 l183 -3 3 -77z
m3340 70 c27 -27 1 -139 -51 -212 -17 -25 -113 -115 -212 -199 -99 -85 -220
-190 -270 -235 -49 -45 -98 -82 -107 -82 -17 0 -18 16 -18 198 0 108 3 275 7
370 l6 172 317 0 c232 0 319 -3 328 -12z m523 -298 c75 -38 196 -94 270 -125
73 -31 139 -61 146 -67 20 -16 19 -606 -1 -614 -39 -15 -451 130 -696 245
l-145 67 2 110 c3 156 50 511 74 556 8 15 21 10 112 -44 56 -33 163 -91 238
-128z m3438 116 c16 -19 86 -506 78 -537 -11 -40 -246 -182 -452 -272 -130
-57 -290 -111 -308 -104 -11 4 -15 39 -20 146 -7 186 3 458 17 470 6 4 65 30
131 56 120 47 365 167 460 224 56 34 77 37 94 17z m396 -187 c368 -329 954
-847 1417 -1252 262 -229 486 -429 498 -444 11 -15 20 -37 18 -49 -4 -33 -445
-524 -470 -524 -19 0 -386 317 -1133 979 -490 434 -455 391 -455 563 0 180
-34 553 -70 773 -13 81 -13 115 3 115 6 0 93 -73 192 -161z m-6713 -56 c93
-92 168 -173 168 -179 0 -18 -329 -344 -348 -344 -21 0 -352 329 -352 350 0
23 321 340 345 340 12 0 82 -62 187 -167z m1000 10 c112 -113 149 -156 154
-181 6 -32 1 -38 -152 -192 -87 -88 -165 -160 -174 -160 -23 0 -340 321 -340
345 1 12 63 84 153 178 130 134 156 157 182 157 26 0 53 -23 177 -147z m2613
-142 c169 -42 424 -81 625 -96 47 -4 93 -9 103 -11 16 -5 17 -28 17 -295 0
-260 -2 -290 -17 -296 -46 -18 -564 39 -778 85 l-80 17 -3 304 c-2 316 -1 327
38 316 8 -2 51 -13 95 -24z m1835 -285 c0 -230 -3 -296 -13 -304 -27 -23 -270
-69 -487 -93 -154 -17 -353 -17 -373 0 -15 12 -17 43 -17 276 0 204 3 265 13
273 7 6 74 16 148 22 211 17 483 62 634 104 28 8 60 15 73 15 l22 1 0 -294z
m984 -333 c5 -160 3 -238 -4 -260 -12 -34 -66 -74 -220 -163 -159 -92 -496
-230 -563 -230 l-35 0 -7 98 c-10 130 0 393 16 424 16 31 20 33 129 69 199 66
423 167 575 258 28 16 62 30 76 30 l26 1 7 -227z m-3882 151 c207 -93 404
-165 649 -239 69 -20 88 -30 97 -51 15 -32 16 -447 2 -475 -6 -10 -19 -19 -30
-19 -54 0 -424 157 -612 259 -201 110 -206 114 -212 163 -9 73 -18 387 -11
398 8 14 3 15 117 -36z m1153 -343 c118 -18 322 -39 560 -59 l90 -7 3 -274 c2
-213 -1 -277 -10 -283 -17 -11 -339 14 -475 37 -246 42 -376 73 -390 92 -15
19 -17 136 -6 373 l6 152 46 -5 c25 -4 105 -15 176 -26z m1740 -251 l0 -274
-80 -17 c-205 -46 -465 -78 -660 -81 -129 -3 -129 -3 -142 22 -14 27 -17 452
-4 500 6 21 14 25 46 28 234 15 543 51 715 81 58 10 110 18 115 17 6 -2 10
-102 10 -276z m1253 58 c50 -45 89 -85 86 -90 -8 -13 -192 -10 -200 4 -14 23
-1 168 15 168 5 0 49 -37 99 -82z m-4398 -33 c6 -8 14 -41 17 -74 5 -54 3 -62
-20 -85 -18 -17 -37 -26 -59 -26 -18 0 -80 -11 -137 -25 -57 -14 -106 -24
-108 -22 -7 8 262 246 278 246 9 1 22 -6 29 -14z m361 -149 c666 -319 1344
-455 2079 -417 561 29 983 139 1478 383 89 44 165 78 169 74 14 -14 -42 -271
-93 -422 -35 -106 -121 -286 -179 -376 -258 -399 -631 -622 -1185 -707 -400
-61 -755 -49 -1104 40 -679 171 -1132 650 -1312 1384 -27 112 -27 115 -16 115
5 0 78 -33 163 -74z m4239 -111 c170 -45 322 -170 399 -325 50 -103 71 -194
71 -320 0 -98 -8 -127 -31 -118 -8 3 -108 90 -224 193 -554 495 -575 515 -575
540 0 13 5 27 11 31 42 26 252 26 349 -1z m-6418 -592 c282 -324 605 -694 719
-824 114 -130 210 -246 214 -258 8 -27 1 -39 -63 -95 -40 -35 -61 -46 -80 -44
-21 2 -174 172 -749 831 -479 549 -723 836 -723 850 -1 31 106 126 142 127 23
0 97 -80 540 -587z m8729 536 c78 -67 77 -80 -8 -177 -37 -42 -326 -372 -642
-732 -836 -952 -747 -856 -779 -846 -28 9 -132 111 -132 129 0 10 145 183 322
385 1216 1385 1133 1292 1160 1292 11 0 47 -23 79 -51z m-7469 -136 c-5 -10
-20 -44 -35 -77 -15 -32 -40 -97 -54 -145 -23 -76 -27 -107 -31 -273 -3 -146
-7 -190 -18 -199 -11 -9 -35 -1 -117 40 -99 49 -208 82 -325 97 -32 4 -51 11
-49 18 3 11 624 556 632 556 2 0 1 -8 -3 -17z m5918 -389 c63 -58 116 -109
118 -114 2 -5 -5 -11 -15 -13 -50 -15 -223 -50 -227 -46 -2 2 -6 66 -10 142
-5 108 -4 137 6 137 7 0 65 -48 128 -106z m1725 -292 c254 -223 250 -220 243
-227 -11 -11 -490 -135 -523 -135 -29 0 -30 8 -16 122 5 40 15 118 21 173 16
143 31 249 37 258 7 11 13 7 238 -191z m-426 81 c0 -10 -15 -124 -32 -253
l-32 -235 -28 -13 c-64 -31 -439 -114 -452 -100 -3 3 13 25 36 49 22 24 143
162 267 306 125 145 230 263 235 263 4 0 7 -8 6 -17z m-989 -125 c37 -13 66
-30 68 -39 3 -17 -112 -165 -154 -198 -34 -27 -74 -27 -110 1 -48 35 -194 182
-194 194 0 6 18 19 40 29 110 50 236 54 350 13z m-8050 -58 c150 -37 382 -106
429 -129 24 -11 37 -26 43 -46 29 -112 78 -599 61 -616 -5 -5 -118 20 -288 66
-353 95 -344 92 -350 118 -12 53 -55 373 -66 489 -13 135 -8 160 29 152 9 -2
73 -17 142 -34z m9938 -312 c7 -7 12 -21 12 -33 0 -12 -150 -190 -396 -470
-218 -248 -402 -453 -408 -457 -6 -4 -16 -8 -23 -8 -16 0 -43 28 -43 45 0 23
809 935 829 935 9 0 22 -5 29 -12z m-298 -17 c0 -15 -540 -626 -556 -629 -8
-2 -14 2 -14 10 0 44 63 485 71 493 8 8 459 131 492 134 4 1 7 -3 7 -8z m716
-357 c123 -109 224 -201 224 -205 0 -9 -28 -18 -323 -104 -126 -37 -201 -55
-207 -49 -6 6 -6 31 0 69 5 33 21 150 35 260 27 206 30 225 40 225 3 0 107
-88 231 -196z m-1436 -100 c-17 -148 -34 -272 -39 -277 -8 -8 -471 399 -471
415 0 12 4 13 277 83 137 35 252 60 256 55 5 -4 -6 -128 -23 -276z m-9591 125
c322 -87 394 -108 403 -117 5 -5 22 -118 38 -253 16 -134 34 -275 39 -314 6
-52 6 -73 -3 -83 -10 -10 -69 3 -312 69 -164 45 -307 90 -316 98 -13 12 -27
84 -57 300 -47 327 -49 361 -23 361 3 0 107 -27 231 -61z m10591 -21 c-2 -50
-59 -421 -66 -427 -16 -15 -417 -122 -425 -114 -14 14 458 553 483 553 4 0 8
-6 8 -12z m-10929 -729 c217 -248 397 -456 401 -463 10 -18 -19 -56 -42 -56
-23 0 -820 904 -820 930 0 22 20 40 45 40 16 0 128 -121 416 -451z m11856 302
c26 -21 81 -70 122 -108 64 -59 73 -72 68 -93 -3 -14 -104 -135 -223 -270
-589 -666 -574 -650 -601 -650 -18 0 -59 30 -139 101 -129 114 -134 126 -81
186 126 147 725 823 748 846 16 15 36 27 43 27 8 0 36 -17 63 -39z m-349 -10
c-5 -16 -532 -601 -540 -601 -4 0 -8 6 -8 13 0 36 62 453 69 460 9 9 439 135
464 136 10 1 17 -3 15 -8z m-11902 -218 c105 -120 283 -325 397 -456 130 -149
207 -245 207 -259 0 -21 -82 -105 -151 -153 -31 -22 -40 -24 -60 -14 -40 19
-793 891 -797 922 -4 29 7 41 111 128 32 27 68 49 81 49 17 0 69 -53 212 -217z
m11209 -164 c-39 -281 -47 -329 -55 -334 -8 -5 -376 315 -408 356 -22 27 -22
29 -5 36 64 25 479 138 486 133 5 -4 -4 -90 -18 -191z"/>
<path d="M8775 14870 c-509 -56 -945 -227 -1349 -530 -133 -99 -367 -310 -440
-396 -79 -93 -146 -197 -146 -227 0 -34 18 -46 102 -69 126 -33 339 -43 612
-28 298 16 676 24 722 16 20 -4 38 -16 45 -28 11 -20 8 -26 -25 -54 -100 -86
-592 -277 -939 -365 -223 -56 -352 -101 -502 -174 -148 -72 -195 -107 -224
-168 -50 -104 -17 -209 107 -339 138 -144 279 -232 477 -297 66 -21 121 -44
123 -50 2 -7 -26 -11 -90 -11 -399 -1 -822 -169 -958 -379 -34 -54 -66 -137
-76 -198 -7 -48 3 -55 67 -43 177 33 761 109 1109 144 1207 122 2670 128 4214
15 153 -11 280 -18 282 -16 8 8 -263 264 -365 346 -280 223 -611 417 -846 496
-210 70 -357 94 -645 103 -199 7 -218 9 -252 30 -71 44 -58 77 68 168 83 60
351 204 379 204 7 0 18 6 24 14 15 18 -11 37 -124 93 -189 95 -328 128 -540
127 -177 0 -230 -9 -532 -96 -117 -34 -216 -58 -220 -54 -15 14 33 81 92 129
95 77 299 210 423 276 197 104 379 174 617 238 178 48 361 55 579 24 286 -42
429 -70 769 -153 114 -28 210 -48 214 -45 17 17 -173 253 -332 413 -397 399
-904 690 -1427 818 -222 55 -342 68 -638 71 -151 2 -311 0 -355 -5z"/>
<path d="M10405 13565 c-144 -18 -285 -46 -432 -85 -186 -49 -188 -58 -13 -84
729 -109 1454 -403 1855 -754 203 -177 385 -441 494 -714 93 -234 87 -414 -18
-575 -45 -69 -71 -93 -131 -125 l-45 -23 -665 -3 c-629 -3 -1416 5 -1407 15 6
5 76 12 1051 103 412 38 751 72 754 74 21 22 -229 24 -1733 18 -1031 -4 -2251
-28 -2655 -52 -372 -23 -756 -66 -1105 -127 -115 -19 -235 -36 -265 -37 l-55
-1 -27 55 c-40 81 -50 161 -33 273 20 132 65 302 120 450 84 228 395 825 482
927 19 22 30 40 25 40 -33 0 -317 -401 -503 -710 -132 -219 -342 -641 -381
-764 -29 -92 -32 -113 -33 -233 0 -117 2 -134 21 -159 29 -40 65 -64 110 -74
52 -13 6435 -13 6467 -1 49 19 155 221 194 370 79 306 -20 694 -277 1079 -179
267 -349 457 -665 745 -258 235 -280 251 -385 296 -158 68 -236 83 -445 87
-124 2 -228 -2 -300 -11z"/>
<path d="M8956 9390 c-81 -26 -159 -82 -207 -149 -186 -259 -22 -618 296 -648
169 -16 332 81 406 241 30 65 33 80 33 166 1 86 -3 101 -31 162 -36 77 -105
156 -168 193 -94 55 -224 69 -329 35z"/>
</g>
</svg>
